<?xml version="1.0" encoding="UTF-8"?>
<svg width="256px" height="256px" viewBox="0 0 256 256" version="1.1" xmlns="http://www.w3.org/2000/svg" xmlns:xlink="http://www.w3.org/1999/xlink">
    <!-- Generator: Sketch 40.2 (33826) - http://www.bohemiancoding.com/sketch -->
    <title>i1-discover</title>
    <desc>Created with Sketch.</desc>
    <defs></defs>
    <g id="Page-1" stroke="none" stroke-width="1" fill="none" fill-rule="evenodd">
        <g id="i1-discover">
            <path d="M195.036714,76.7436324 L194.937407,81.0469591 C194.922135,81.0547711 194.914791,81.0590304 194.914791,81.0590304 L194.722629,85.3079628 C194.722629,85.3079628 194.615872,87.2082391 193.783166,88.9377041 C192.886407,90.7739261 191.263699,92.4393369 191.263699,92.4393369 C191.263699,92.4393369 186.395575,97.1366491 183.812053,103.734238 C181.890426,108.666415 182.061237,115.968601 182.061237,115.968601 L182.167994,187.837478 L182.018534,202.932931 C182.018534,202.932931 181.911777,205.708616 182.210697,208.441598 C182.338806,209.637277 182.637725,210.790254 182.872591,211.751068 C183.171511,212.968098 184.858273,213.73675 184.858273,213.73675 C184.858273,213.73675 186.587738,214.548103 189.085854,214.95378 C193.484246,215.679729 198.117504,216 203.369953,216 C208.067266,216 213.277012,215.679729 217.654053,214.95378 C220.152169,214.548103 221.881634,213.73675 221.881634,213.73675 C221.881634,213.73675 223.547045,212.98945 223.867316,211.751068 C224.102182,210.811605 224.401101,209.637277 224.52921,208.441598 C224.82813,205.708616 224.721373,202.932931 224.721373,202.932931 L224.571913,187.837478 L224.67867,115.968601 C224.67867,115.968601 224.849481,108.645064 222.927853,103.734238 C220.344332,97.1366491 215.476208,92.4393369 215.476208,92.4393369 C215.476208,92.4393369 213.8535,90.7525747 212.956741,88.9377041 C212.124035,87.2082391 212.017278,85.3079628 212.017278,85.3079628 L211.826564,81.0910548 C211.839994,81.0979789 211.846467,81.1017332 211.846467,81.1017332 L211.718358,75.5503642 L211.71586,75.5503322 C211.629539,71.2048803 211.340347,56.4844566 211.376736,56.1205727 C211.44079,55.8003014 211.568898,55.6294901 211.568898,55.6294901 C211.568898,55.6294901 211.73971,55.4800301 211.782413,55.373273 C211.846467,55.1597589 211.846467,54.9462447 211.846467,54.9462447 C211.846467,54.9462447 211.846467,51.1243406 211.73971,50.6546094 C211.675656,50.2916353 211.419439,50.2489324 211.419439,50.2489324 C211.419439,50.2489324 211.269979,50.2062296 211.184573,50.0140668 C211.120519,49.8432555 211.120519,49.5443356 211.120519,49.5443356 L211.184573,48.6262246 C211.184573,48.6262246 211.44079,47.0462195 210.330516,46.6832454 C209.882136,46.5551369 209.476459,46.405677 208.899971,46.3629741 C206.850235,46.2135142 205.099418,46 203.369953,46 C201.170757,46 199.889672,46.1921628 197.839936,46.3629741 C197.263448,46.405677 196.857771,46.5337855 196.409391,46.6832454 C195.299117,47.0248681 195.555334,48.6262246 195.555334,48.6262246 L195.619388,49.5443356 C195.619388,49.5443356 195.64074,49.8432555 195.555334,50.0140668 C195.49128,50.1848782 195.320468,50.2489324 195.320468,50.2489324 C195.320468,50.2489324 195.085603,50.2916353 195.021549,50.6546094 C194.914791,51.145692 194.914791,54.9462447 194.914791,54.9462447 C194.914791,54.9462447 194.914791,55.1597589 194.978846,55.373273 C195.021549,55.4800301 195.19236,55.6294901 195.19236,55.6294901 C195.19236,55.6294901 195.320468,55.8003014 195.363171,56.1205727 C195.405874,56.5476011 195.000197,76.7460437 195.000197,76.7460437 C195.000197,76.7460437 195.012651,76.7452135 195.036714,76.7436324 Z M206.536963,80.4184136 L205.776255,80.4030457 C206.074775,80.4071674 206.325905,80.4124844 206.536963,80.4184136 Z" id="Combined-Shape-Copy" stroke="#504B4B" stroke-width="2"></path>
            <path d="M118.337311,52.1689793 L118.220479,57.2317166 C118.202512,57.2409072 118.193872,57.2459181 118.193872,57.2459181 L117.967798,62.2446621 C117.967798,62.2446621 117.842202,64.4802813 116.862548,66.514946 C115.807537,68.6752072 113.898469,70.6345139 113.898469,70.6345139 C113.898469,70.6345139 108.171265,76.1607636 105.131828,83.9226325 C102.871089,89.7251947 103.072044,98.316001 103.072044,98.316001 L103.19764,182.867621 L103.021805,200.626978 C103.021805,200.626978 102.896208,203.892489 103.247879,207.107762 C103.398595,208.514444 103.750265,209.870887 104.026578,211.001256 C104.378248,212.433057 106.362674,213.337352 106.362674,213.337352 C106.362674,213.337352 108.397339,214.291886 111.336299,214.769153 C116.510878,215.62321 121.96177,216 128.141122,216 C133.667371,216 139.796485,215.62321 144.945945,214.769153 C147.884905,214.291886 149.919569,213.337352 149.919569,213.337352 C149.919569,213.337352 151.878876,212.458176 152.255666,211.001256 C152.531978,209.896006 152.883649,208.514444 153.034365,207.107762 C153.386035,203.892489 153.260438,200.626978 153.260438,200.626978 L153.084603,182.867621 L153.2102,98.316001 C153.2102,98.316001 153.411154,89.7000754 151.150416,83.9226325 C148.110979,76.1607636 142.383774,70.6345139 142.383774,70.6345139 C142.383774,70.6345139 140.474706,68.6500879 139.419695,66.514946 C138.440042,64.4802813 138.314445,62.2446621 138.314445,62.2446621 L138.090075,57.2835939 C138.105875,57.2917398 138.11349,57.2961567 138.11349,57.2961567 L137.962775,50.7651344 L137.959836,50.7650967 C137.858281,45.6528003 137.518056,28.3346548 137.560866,27.9065561 C137.636223,27.5297664 137.786939,27.3288119 137.786939,27.3288119 C137.786939,27.3288119 137.987894,27.1529766 138.038133,27.0273801 C138.11349,26.7761869 138.11349,26.5249937 138.11349,26.5249937 C138.11349,26.5249937 138.11349,22.028636 137.987894,21.4760111 C137.912536,21.0489827 137.611104,20.998744 137.611104,20.998744 C137.611104,20.998744 137.435269,20.9485054 137.334792,20.7224315 C137.259434,20.521477 137.259434,20.1698066 137.259434,20.1698066 L137.334792,19.089676 C137.334792,19.089676 137.636223,17.2308465 136.330019,16.8038181 C135.802513,16.6531022 135.325246,16.477267 134.647025,16.4270284 C132.23557,16.2511932 130.175786,16 128.141122,16 C125.553832,16 124.046673,16.2260739 121.635219,16.4270284 C120.956997,16.477267 120.47973,16.6279829 119.952224,16.8038181 C118.64602,17.2057272 118.947452,19.089676 118.947452,19.089676 L119.02281,20.1698066 C119.02281,20.1698066 119.047929,20.521477 118.947452,20.7224315 C118.872094,20.9233861 118.671139,20.998744 118.671139,20.998744 C118.671139,20.998744 118.394827,21.0489827 118.319469,21.4760111 C118.193872,22.0537553 118.193872,26.5249937 118.193872,26.5249937 C118.193872,26.5249937 118.193872,26.7761869 118.26923,27.0273801 C118.319469,27.1529766 118.520423,27.3288119 118.520423,27.3288119 C118.520423,27.3288119 118.671139,27.5297664 118.721378,27.9065561 C118.771617,28.4089425 118.29435,52.1718161 118.29435,52.1718161 C118.29435,52.1718161 118.309001,52.1708394 118.337311,52.1689793 Z M131.867016,56.4922512 L130.972065,56.4741714 C131.323265,56.4790204 131.618712,56.4852758 131.867016,56.4922512 Z" id="Combined-Shape-Copy-2" stroke="#504B4B" stroke-width="2"></path>
            <path d="M44.0367144,76.7436324 L43.9374069,81.0469591 C43.922135,81.0547711 43.9147914,81.0590304 43.9147914,81.0590304 L43.7226287,85.3079628 C43.7226287,85.3079628 43.6158716,87.2082391 42.7831662,88.9377041 C41.8864066,90.7739261 40.2636987,92.4393369 40.2636987,92.4393369 C40.2636987,92.4393369 35.3955752,97.1366491 32.8120534,103.734238 C30.8904257,108.666415 31.0612371,115.968601 31.0612371,115.968601 L31.1679942,187.837478 L31.0185342,202.932931 C31.0185342,202.932931 30.9117771,205.708616 31.210697,208.441598 C31.3388055,209.637277 31.6377254,210.790254 31.872591,211.751068 C32.1715109,212.968098 33.858273,213.73675 33.858273,213.73675 C33.858273,213.73675 35.5877379,214.548103 38.085854,214.95378 C42.4842464,215.679729 47.1175043,216 52.3699535,216 C57.0672657,216 62.277012,215.679729 66.6540529,214.95378 C69.152169,214.548103 70.8816339,213.73675 70.8816339,213.73675 C70.8816339,213.73675 72.5470446,212.98945 72.8673159,211.751068 C73.1021815,210.811605 73.4011014,209.637277 73.5292099,208.441598 C73.8281298,205.708616 73.7213727,202.932931 73.7213727,202.932931 L73.5719128,187.837478 L73.6786699,115.968601 C73.6786699,115.968601 73.8494812,108.645064 71.9278535,103.734238 C69.3443318,97.1366491 64.4762082,92.4393369 64.4762082,92.4393369 C64.4762082,92.4393369 62.8535003,90.7525747 61.9567407,88.9377041 C61.1240353,87.2082391 61.0172783,85.3079628 61.0172783,85.3079628 L60.8265638,81.0910548 C60.8399938,81.0979789 60.8464669,81.1017332 60.8464669,81.1017332 L60.7183584,75.5503642 L60.7158603,75.5503322 C60.6295392,71.2048803 60.3403473,56.4844566 60.3767357,56.1205727 C60.4407899,55.8003014 60.5688984,55.6294901 60.5688984,55.6294901 C60.5688984,55.6294901 60.7397098,55.4800301 60.7824126,55.373273 C60.8464669,55.1597589 60.8464669,54.9462447 60.8464669,54.9462447 C60.8464669,54.9462447 60.8464669,51.1243406 60.7397098,50.6546094 C60.6756555,50.2916353 60.4194385,50.2489324 60.4194385,50.2489324 C60.4194385,50.2489324 60.2699786,50.2062296 60.1845729,50.0140668 C60.1205186,49.8432555 60.1205186,49.5443356 60.1205186,49.5443356 L60.1845729,48.6262246 C60.1845729,48.6262246 60.4407899,47.0462195 59.3305161,46.6832454 C58.8821363,46.5551369 58.4764594,46.405677 57.899971,46.3629741 C55.8502348,46.2135142 54.0994184,46 52.3699535,46 C50.1707573,46 48.8896721,46.1921628 46.8399359,46.3629741 C46.2634476,46.405677 45.8577706,46.5337855 45.4093908,46.6832454 C44.299117,47.0248681 44.555334,48.6262246 44.555334,48.6262246 L44.6193883,49.5443356 C44.6193883,49.5443356 44.6407397,49.8432555 44.555334,50.0140668 C44.4912798,50.1848782 44.3204684,50.2489324 44.3204684,50.2489324 C44.3204684,50.2489324 44.0856028,50.2916353 44.0215485,50.6546094 C43.9147914,51.145692 43.9147914,54.9462447 43.9147914,54.9462447 C43.9147914,54.9462447 43.9147914,55.1597589 43.9788457,55.373273 C44.0215485,55.4800301 44.1923599,55.6294901 44.1923599,55.6294901 C44.1923599,55.6294901 44.3204684,55.8003014 44.3631712,56.1205727 C44.4058741,56.5476011 44.0001971,76.7460437 44.0001971,76.7460437 C44.0001971,76.7460437 44.0126506,76.7452135 44.0367144,76.7436324 Z M55.5369632,80.4184136 L54.7762551,80.4030457 C55.074775,80.4071674 55.3259052,80.4124844 55.5369632,80.4184136 Z" id="Combined-Shape" stroke="#504B4B" stroke-width="2"></path>
            <g id="Group-7" transform="translate(155.962429, 170.707818) rotate(-40.000000) translate(-155.962429, -170.707818) translate(108.962429, 85.207818)">
                <circle id="Oval-4" stroke="#EAB96A" stroke-width="6" cx="47" cy="47" r="47"></circle>
                <rect id="Rectangle-2" fill="#EAB96A" x="41" y="91" width="12" height="80" rx="6"></rect>
            </g>
        </g>
    </g>
</svg>