<?xml version="1.0" encoding="UTF-8"?>
<svg width="256px" height="256px" viewBox="0 0 256 256" version="1.1" xmlns="http://www.w3.org/2000/svg" xmlns:xlink="http://www.w3.org/1999/xlink">
    <!-- Generator: Sketch 40.2 (33826) - http://www.bohemiancoding.com/sketch -->
    <title>i2-vertical</title>
    <desc>Created with Sketch.</desc>
    <defs></defs>
    <g id="Page-1" stroke="none" stroke-width="1" fill="none" fill-rule="evenodd">
        <g id="i2-vertical">
            <path d="M189.337311,64.1689793 L189.220479,69.2317166 C189.202512,69.2409072 189.193872,69.2459181 189.193872,69.2459181 L188.967798,74.2446621 C188.967798,74.2446621 188.842202,76.4802813 187.862548,78.514946 C186.807537,80.6752072 184.898469,82.6345139 184.898469,82.6345139 C184.898469,82.6345139 179.171265,88.1607636 176.131828,95.9226325 C173.871089,101.725195 174.072044,110.316001 174.072044,110.316001 L174.19764,194.867621 L174.021805,212.626978 C174.021805,212.626978 173.896208,215.892489 174.247879,219.107762 C174.398595,220.514444 174.750265,221.870887 175.026578,223.001256 C175.378248,224.433057 177.362674,225.337352 177.362674,225.337352 C177.362674,225.337352 179.397339,226.291886 182.336299,226.769153 C187.510878,227.62321 192.96177,228 199.141122,228 C204.667371,228 210.796485,227.62321 215.945945,226.769153 C218.884905,226.291886 220.919569,225.337352 220.919569,225.337352 C220.919569,225.337352 222.878876,224.458176 223.255666,223.001256 C223.531978,221.896006 223.883649,220.514444 224.034365,219.107762 C224.386035,215.892489 224.260438,212.626978 224.260438,212.626978 L224.084603,194.867621 L224.2102,110.316001 C224.2102,110.316001 224.411154,101.700075 222.150416,95.9226325 C219.110979,88.1607636 213.383774,82.6345139 213.383774,82.6345139 C213.383774,82.6345139 211.474706,80.6500879 210.419695,78.514946 C209.440042,76.4802813 209.314445,74.2446621 209.314445,74.2446621 L209.090075,69.2835939 C209.105875,69.2917398 209.11349,69.2961567 209.11349,69.2961567 L208.962775,62.7651344 L208.959836,62.7650967 C208.858281,57.6528003 208.518056,40.3346548 208.560866,39.9065561 C208.636223,39.5297664 208.786939,39.3288119 208.786939,39.3288119 C208.786939,39.3288119 208.987894,39.1529766 209.038133,39.0273801 C209.11349,38.7761869 209.11349,38.5249937 209.11349,38.5249937 C209.11349,38.5249937 209.11349,34.028636 208.987894,33.4760111 C208.912536,33.0489827 208.611104,32.998744 208.611104,32.998744 C208.611104,32.998744 208.435269,32.9485054 208.334792,32.7224315 C208.259434,32.521477 208.259434,32.1698066 208.259434,32.1698066 L208.334792,31.089676 C208.334792,31.089676 208.636223,29.2308465 207.330019,28.8038181 C206.802513,28.6531022 206.325246,28.477267 205.647025,28.4270284 C203.23557,28.2511932 201.175786,28 199.141122,28 C196.553832,28 195.046673,28.2260739 192.635219,28.4270284 C191.956997,28.477267 191.47973,28.6279829 190.952224,28.8038181 C189.64602,29.2057272 189.947452,31.089676 189.947452,31.089676 L190.02281,32.1698066 C190.02281,32.1698066 190.047929,32.521477 189.947452,32.7224315 C189.872094,32.9233861 189.671139,32.998744 189.671139,32.998744 C189.671139,32.998744 189.394827,33.0489827 189.319469,33.4760111 C189.193872,34.0537553 189.193872,38.5249937 189.193872,38.5249937 C189.193872,38.5249937 189.193872,38.7761869 189.26923,39.0273801 C189.319469,39.1529766 189.520423,39.3288119 189.520423,39.3288119 C189.520423,39.3288119 189.671139,39.5297664 189.721378,39.9065561 C189.771617,40.4089425 189.29435,64.1718161 189.29435,64.1718161 C189.29435,64.1718161 189.309001,64.1708394 189.337311,64.1689793 Z M202.867016,68.4922512 L201.972065,68.4741714 C202.323265,68.4790204 202.618712,68.4852758 202.867016,68.4922512 Z" id="Combined-Shape-Copy-2" fill="#EAB96A"></path>
            <path d="M118.337311,64.1689793 L118.220479,69.2317166 C118.202512,69.2409072 118.193872,69.2459181 118.193872,69.2459181 L117.967798,74.2446621 C117.967798,74.2446621 117.842202,76.4802813 116.862548,78.514946 C115.807537,80.6752072 113.898469,82.6345139 113.898469,82.6345139 C113.898469,82.6345139 108.171265,88.1607636 105.131828,95.9226325 C102.871089,101.725195 103.072044,110.316001 103.072044,110.316001 L103.19764,194.867621 L103.021805,212.626978 C103.021805,212.626978 102.896208,215.892489 103.247879,219.107762 C103.398595,220.514444 103.750265,221.870887 104.026578,223.001256 C104.378248,224.433057 106.362674,225.337352 106.362674,225.337352 C106.362674,225.337352 108.397339,226.291886 111.336299,226.769153 C116.510878,227.62321 121.96177,228 128.141122,228 C133.667371,228 139.796485,227.62321 144.945945,226.769153 C147.884905,226.291886 149.919569,225.337352 149.919569,225.337352 C149.919569,225.337352 151.878876,224.458176 152.255666,223.001256 C152.531978,221.896006 152.883649,220.514444 153.034365,219.107762 C153.386035,215.892489 153.260438,212.626978 153.260438,212.626978 L153.084603,194.867621 L153.2102,110.316001 C153.2102,110.316001 153.411154,101.700075 151.150416,95.9226325 C148.110979,88.1607636 142.383774,82.6345139 142.383774,82.6345139 C142.383774,82.6345139 140.474706,80.6500879 139.419695,78.514946 C138.440042,76.4802813 138.314445,74.2446621 138.314445,74.2446621 L138.090075,69.2835939 C138.105875,69.2917398 138.11349,69.2961567 138.11349,69.2961567 L137.962775,62.7651344 L137.959836,62.7650967 C137.858281,57.6528003 137.518056,40.3346548 137.560866,39.9065561 C137.636223,39.5297664 137.786939,39.3288119 137.786939,39.3288119 C137.786939,39.3288119 137.987894,39.1529766 138.038133,39.0273801 C138.11349,38.7761869 138.11349,38.5249937 138.11349,38.5249937 C138.11349,38.5249937 138.11349,34.028636 137.987894,33.4760111 C137.912536,33.0489827 137.611104,32.998744 137.611104,32.998744 C137.611104,32.998744 137.435269,32.9485054 137.334792,32.7224315 C137.259434,32.521477 137.259434,32.1698066 137.259434,32.1698066 L137.334792,31.089676 C137.334792,31.089676 137.636223,29.2308465 136.330019,28.8038181 C135.802513,28.6531022 135.325246,28.477267 134.647025,28.4270284 C132.23557,28.2511932 130.175786,28 128.141122,28 C125.553832,28 124.046673,28.2260739 121.635219,28.4270284 C120.956997,28.477267 120.47973,28.6279829 119.952224,28.8038181 C118.64602,29.2057272 118.947452,31.089676 118.947452,31.089676 L119.02281,32.1698066 C119.02281,32.1698066 119.047929,32.521477 118.947452,32.7224315 C118.872094,32.9233861 118.671139,32.998744 118.671139,32.998744 C118.671139,32.998744 118.394827,33.0489827 118.319469,33.4760111 C118.193872,34.0537553 118.193872,38.5249937 118.193872,38.5249937 C118.193872,38.5249937 118.193872,38.7761869 118.26923,39.0273801 C118.319469,39.1529766 118.520423,39.3288119 118.520423,39.3288119 C118.520423,39.3288119 118.671139,39.5297664 118.721378,39.9065561 C118.771617,40.4089425 118.29435,64.1718161 118.29435,64.1718161 C118.29435,64.1718161 118.309001,64.1708394 118.337311,64.1689793 Z M131.867016,68.4922512 L130.972065,68.4741714 C131.323265,68.4790204 131.618712,68.4852758 131.867016,68.4922512 Z" id="Combined-Shape-Copy-4" stroke="#504B4B" stroke-width="2"></path>
            <path d="M46.3373111,64.1689793 L46.2204787,69.2317166 C46.2025118,69.2409072 46.1938723,69.2459181 46.1938723,69.2459181 L45.9677984,74.2446621 C45.9677984,74.2446621 45.8422018,76.4802813 44.8625485,78.514946 C43.8075372,80.6752072 41.8984691,82.6345139 41.8984691,82.6345139 C41.8984691,82.6345139 36.1712649,88.1607636 33.1318276,95.9226325 C30.8710891,101.725195 31.0720436,110.316001 31.0720436,110.316001 L31.1976402,194.867621 L31.021805,212.626978 C31.021805,212.626978 30.8962084,215.892489 31.2478788,219.107762 C31.3985947,220.514444 31.7502651,221.870887 32.0265776,223.001256 C32.3782481,224.433057 34.3626741,225.337352 34.3626741,225.337352 C34.3626741,225.337352 36.3973387,226.291886 39.3362988,226.769153 C44.5108781,227.62321 49.9617698,228 56.1411217,228 C61.6673714,228 67.7964847,227.62321 72.9459446,226.769153 C75.8849047,226.291886 77.9195693,225.337352 77.9195693,225.337352 C77.9195693,225.337352 79.8788761,224.458176 80.2556658,223.001256 C80.5319783,221.896006 80.8836487,220.514444 81.0343646,219.107762 C81.3860351,215.892489 81.2604385,212.626978 81.2604385,212.626978 L81.0846033,194.867621 L81.2101998,110.316001 C81.2101998,110.316001 81.4111544,101.700075 79.1504159,95.9226325 C76.1109785,88.1607636 70.3837743,82.6345139 70.3837743,82.6345139 C70.3837743,82.6345139 68.4747062,80.6500879 67.4196949,78.514946 C66.4400416,76.4802813 66.314445,74.2446621 66.314445,74.2446621 L66.0900751,69.2835939 C66.1058751,69.2917398 66.1134905,69.2961567 66.1134905,69.2961567 L65.9627746,62.7651344 L65.9598356,62.7650967 C65.8582814,57.6528003 65.5180556,40.3346548 65.5608655,39.9065561 C65.6362235,39.5297664 65.7869394,39.3288119 65.7869394,39.3288119 C65.7869394,39.3288119 65.9878939,39.1529766 66.0381325,39.0273801 C66.1134905,38.7761869 66.1134905,38.5249937 66.1134905,38.5249937 C66.1134905,38.5249937 66.1134905,34.028636 65.9878939,33.4760111 C65.9125359,33.0489827 65.6111041,32.998744 65.6111041,32.998744 C65.6111041,32.998744 65.4352689,32.9485054 65.3347916,32.7224315 C65.2594337,32.521477 65.2594337,32.1698066 65.2594337,32.1698066 L65.3347916,31.089676 C65.3347916,31.089676 65.6362235,29.2308465 64.330019,28.8038181 C63.8025133,28.6531022 63.3252463,28.477267 62.6470248,28.4270284 C60.2355703,28.2511932 58.1757864,28 56.1411217,28 C53.5538321,28 52.0466731,28.2260739 49.6352187,28.4270284 C48.9569971,28.477267 48.4797301,28.6279829 47.9522245,28.8038181 C46.64602,29.2057272 46.9474518,31.089676 46.9474518,31.089676 L47.0228097,32.1698066 C47.0228097,32.1698066 47.0479291,32.521477 46.9474518,32.7224315 C46.8720938,32.9233861 46.6711393,32.998744 46.6711393,32.998744 C46.6711393,32.998744 46.3948268,33.0489827 46.3194689,33.4760111 C46.1938723,34.0537553 46.1938723,38.5249937 46.1938723,38.5249937 C46.1938723,38.5249937 46.1938723,38.7761869 46.2692302,39.0273801 C46.3194689,39.1529766 46.5204234,39.3288119 46.5204234,39.3288119 C46.5204234,39.3288119 46.6711393,39.5297664 46.7213779,39.9065561 C46.7716166,40.4089425 46.2943495,64.1718161 46.2943495,64.1718161 C46.2943495,64.1718161 46.3090007,64.1708394 46.3373111,64.1689793 Z M59.8670155,68.4922512 L58.9720648,68.4741714 C59.3232647,68.4790204 59.618712,68.4852758 59.8670155,68.4922512 Z" id="Combined-Shape-Copy-3" stroke="#504B4B" stroke-width="2"></path>
        </g>
    </g>
</svg>