<?xml version="1.0" encoding="UTF-8"?>
<svg width="256px" height="256px" viewBox="0 0 256 256" version="1.1" xmlns="http://www.w3.org/2000/svg" xmlns:xlink="http://www.w3.org/1999/xlink">
    <!-- Generator: Sketch 40.2 (33826) - http://www.bohemiancoding.com/sketch -->
    <title>i3-collect</title>
    <desc>Created with Sketch.</desc>
    <defs></defs>
    <g id="Page-1" stroke="none" stroke-width="1" fill="none" fill-rule="evenodd">
        <g id="i3-collect">
            <g id="Group-9" transform="translate(43.000000, 46.000000)" stroke="#504B4B" stroke-width="2">
                <path d="M77.0367144,87.7436324 L76.9374069,92.0469591 C76.922135,92.0547711 76.9147914,92.0590304 76.9147914,92.0590304 L76.7226287,96.3079628 C76.7226287,96.3079628 76.6158716,98.2082391 75.7831662,99.9377041 C74.8864066,101.773926 73.2636987,103.439337 73.2636987,103.439337 C73.2636987,103.439337 68.3955752,108.136649 65.8120534,114.734238 C63.8904257,119.666415 64.0612371,126.968601 64.0612371,126.968601 L64.1679942,198.837478 L64.0185342,213.932931 C64.0185342,213.932931 63.9117771,216.708616 64.210697,219.441598 C64.3388055,220.637277 64.6377254,221.790254 64.872591,222.751068 C65.1715109,223.968098 66.858273,224.73675 66.858273,224.73675 C66.858273,224.73675 68.5877379,225.548103 71.085854,225.95378 C75.4842464,226.679729 80.1175043,227 85.3699535,227 C90.0672657,227 95.277012,226.679729 99.6540529,225.95378 C102.152169,225.548103 103.881634,224.73675 103.881634,224.73675 C103.881634,224.73675 105.547045,223.98945 105.867316,222.751068 C106.102182,221.811605 106.401101,220.637277 106.52921,219.441598 C106.82813,216.708616 106.721373,213.932931 106.721373,213.932931 L106.571913,198.837478 L106.67867,126.968601 C106.67867,126.968601 106.849481,119.645064 104.927853,114.734238 C102.344332,108.136649 97.4762082,103.439337 97.4762082,103.439337 C97.4762082,103.439337 95.8535003,101.752575 94.9567407,99.9377041 C94.1240353,98.2082391 94.0172783,96.3079628 94.0172783,96.3079628 L93.8265638,92.0910548 C93.8399938,92.0979789 93.8464669,92.1017332 93.8464669,92.1017332 L93.7183584,86.5503642 L93.7158603,86.5503322 C93.6295392,82.2048803 93.3403473,67.4844566 93.3767357,67.1205727 C93.4407899,66.8003014 93.5688984,66.6294901 93.5688984,66.6294901 C93.5688984,66.6294901 93.7397098,66.4800301 93.7824126,66.373273 C93.8464669,66.1597589 93.8464669,65.9462447 93.8464669,65.9462447 C93.8464669,65.9462447 93.8464669,62.1243406 93.7397098,61.6546094 C93.6756555,61.2916353 93.4194385,61.2489324 93.4194385,61.2489324 C93.4194385,61.2489324 93.2699786,61.2062296 93.1845729,61.0140668 C93.1205186,60.8432555 93.1205186,60.5443356 93.1205186,60.5443356 L93.1845729,59.6262246 C93.1845729,59.6262246 93.4407899,58.0462195 92.3305161,57.6832454 C91.8821363,57.5551369 91.4764594,57.405677 90.899971,57.3629741 C88.8502348,57.2135142 87.0994184,57 85.3699535,57 C83.1707573,57 81.8896721,57.1921628 79.8399359,57.3629741 C79.2634476,57.405677 78.8577706,57.5337855 78.4093908,57.6832454 C77.299117,58.0248681 77.555334,59.6262246 77.555334,59.6262246 L77.6193883,60.5443356 C77.6193883,60.5443356 77.6407397,60.8432555 77.555334,61.0140668 C77.4912798,61.1848782 77.3204684,61.2489324 77.3204684,61.2489324 C77.3204684,61.2489324 77.0856028,61.2916353 77.0215485,61.6546094 C76.9147914,62.145692 76.9147914,65.9462447 76.9147914,65.9462447 C76.9147914,65.9462447 76.9147914,66.1597589 76.9788457,66.373273 C77.0215485,66.4800301 77.1923599,66.6294901 77.1923599,66.6294901 C77.1923599,66.6294901 77.3204684,66.8003014 77.3631712,67.1205727 C77.4058741,67.5476011 77.0001971,87.7460437 77.0001971,87.7460437 C77.0001971,87.7460437 77.0126506,87.7452135 77.0367144,87.7436324 Z M88.5369632,91.4184136 L87.7762551,91.4030457 C88.074775,91.4071674 88.3259052,91.4124844 88.5369632,91.4184136 Z" id="Combined-Shape-Copy-7" transform="translate(85.369953, 142.000000) rotate(90.000000) translate(-85.369953, -142.000000) "></path>
                <path d="M77.0367144,27.7436324 L76.9374069,32.0469591 C76.922135,32.0547711 76.9147914,32.0590304 76.9147914,32.0590304 L76.7226287,36.3079628 C76.7226287,36.3079628 76.6158716,38.2082391 75.7831662,39.9377041 C74.8864066,41.7739261 73.2636987,43.4393369 73.2636987,43.4393369 C73.2636987,43.4393369 68.3955752,48.1366491 65.8120534,54.7342376 C63.8904257,59.6664155 64.0612371,66.9686009 64.0612371,66.9686009 L64.1679942,138.837478 L64.0185342,153.932931 C64.0185342,153.932931 63.9117771,156.708616 64.210697,159.441598 C64.3388055,160.637277 64.6377254,161.790254 64.872591,162.751068 C65.1715109,163.968098 66.858273,164.73675 66.858273,164.73675 C66.858273,164.73675 68.5877379,165.548103 71.085854,165.95378 C75.4842464,166.679729 80.1175043,167 85.3699535,167 C90.0672657,167 95.277012,166.679729 99.6540529,165.95378 C102.152169,165.548103 103.881634,164.73675 103.881634,164.73675 C103.881634,164.73675 105.547045,163.98945 105.867316,162.751068 C106.102182,161.811605 106.401101,160.637277 106.52921,159.441598 C106.82813,156.708616 106.721373,153.932931 106.721373,153.932931 L106.571913,138.837478 L106.67867,66.9686009 C106.67867,66.9686009 106.849481,59.6450641 104.927853,54.7342376 C102.344332,48.1366491 97.4762082,43.4393369 97.4762082,43.4393369 C97.4762082,43.4393369 95.8535003,41.7525747 94.9567407,39.9377041 C94.1240353,38.2082391 94.0172783,36.3079628 94.0172783,36.3079628 L93.8265638,32.0910548 C93.8399938,32.0979789 93.8464669,32.1017332 93.8464669,32.1017332 L93.7183584,26.5503642 L93.7158603,26.5503322 C93.6295392,22.2048803 93.3403473,7.48445656 93.3767357,7.12057272 C93.4407899,6.80030143 93.5688984,6.62949008 93.5688984,6.62949008 C93.5688984,6.62949008 93.7397098,6.48003014 93.7824126,6.37327305 C93.8464669,6.15975885 93.8464669,5.94624466 93.8464669,5.94624466 C93.8464669,5.94624466 93.8464669,2.12434062 93.7397098,1.65460939 C93.6756555,1.29163527 93.4194385,1.24893243 93.4194385,1.24893243 C93.4194385,1.24893243 93.2699786,1.20622959 93.1845729,1.01406682 C93.1205186,0.843255463 93.1205186,0.544335594 93.1205186,0.544335594 L93.1845729,-0.373775433 C93.1845729,-0.373775433 93.4407899,-1.95378046 92.3305161,-2.31675458 C91.8821363,-2.4448631 91.4764594,-2.59432303 90.899971,-2.63702587 C88.8502348,-2.78648581 87.0994184,-3 85.3699535,-3 C83.1707573,-3 81.8896721,-2.80783723 79.8399359,-2.63702587 C79.2634476,-2.59432303 78.8577706,-2.46621452 78.4093908,-2.31675458 C77.299117,-1.97513188 77.555334,-0.373775433 77.555334,-0.373775433 L77.6193883,0.544335594 C77.6193883,0.544335594 77.6407397,0.843255463 77.555334,1.01406682 C77.4912798,1.18487817 77.3204684,1.24893243 77.3204684,1.24893243 C77.3204684,1.24893243 77.0856028,1.29163527 77.0215485,1.65460939 C76.9147914,2.14569204 76.9147914,5.94624466 76.9147914,5.94624466 C76.9147914,5.94624466 76.9147914,6.15975885 76.9788457,6.37327305 C77.0215485,6.48003014 77.1923599,6.62949008 77.1923599,6.62949008 C77.1923599,6.62949008 77.3204684,6.80030143 77.3631712,7.12057272 C77.4058741,7.54760111 77.0001971,27.7460437 77.0001971,27.7460437 C77.0001971,27.7460437 77.0126506,27.7452135 77.0367144,27.7436324 Z M88.5369632,31.4184136 L87.7762551,31.4030457 C88.074775,31.4071674 88.3259052,31.4124844 88.5369632,31.4184136 Z" id="Combined-Shape-Copy-8" transform="translate(85.369953, 82.000000) rotate(90.000000) translate(-85.369953, -82.000000) "></path>
                <path d="M77.0367144,-32.2563676 L76.9374069,-27.9530409 C76.922135,-27.9452289 76.9147914,-27.9409696 76.9147914,-27.9409696 L76.7226287,-23.6920372 C76.7226287,-23.6920372 76.6158716,-21.7917609 75.7831662,-20.0622959 C74.8864066,-18.2260739 73.2636987,-16.5606631 73.2636987,-16.5606631 C73.2636987,-16.5606631 68.3955752,-11.8633509 65.8120534,-5.26576237 C63.8904257,-0.333584527 64.0612371,6.96860085 64.0612371,6.96860085 L64.1679942,78.837478 L64.0185342,93.9329314 C64.0185342,93.9329314 63.9117771,96.7086159 64.210697,99.4415976 C64.3388055,100.637277 64.6377254,101.790254 64.872591,102.751068 C65.1715109,103.968098 66.858273,104.73675 66.858273,104.73675 C66.858273,104.73675 68.5877379,105.548103 71.085854,105.95378 C75.4842464,106.679729 80.1175043,107 85.3699535,107 C90.0672657,107 95.277012,106.679729 99.6540529,105.95378 C102.152169,105.548103 103.881634,104.73675 103.881634,104.73675 C103.881634,104.73675 105.547045,103.98945 105.867316,102.751068 C106.102182,101.811605 106.401101,100.637277 106.52921,99.4415976 C106.82813,96.7086159 106.721373,93.9329314 106.721373,93.9329314 L106.571913,78.837478 L106.67867,6.96860085 C106.67867,6.96860085 106.849481,-0.354935946 104.927853,-5.26576237 C102.344332,-11.8633509 97.4762082,-16.5606631 97.4762082,-16.5606631 C97.4762082,-16.5606631 95.8535003,-18.2474253 94.9567407,-20.0622959 C94.1240353,-21.7917609 94.0172783,-23.6920372 94.0172783,-23.6920372 L93.8265638,-27.9089452 C93.8399938,-27.9020211 93.8464669,-27.8982668 93.8464669,-27.8982668 L93.7183584,-33.4496358 L93.7158603,-33.4496678 C93.6295392,-37.7951197 93.3403473,-52.5155434 93.3767357,-52.8794273 C93.4407899,-53.1996986 93.5688984,-53.3705099 93.5688984,-53.3705099 C93.5688984,-53.3705099 93.7397098,-53.5199699 93.7824126,-53.626727 C93.8464669,-53.8402411 93.8464669,-54.0537553 93.8464669,-54.0537553 C93.8464669,-54.0537553 93.8464669,-57.8756594 93.7397098,-58.3453906 C93.6756555,-58.7083647 93.4194385,-58.7510676 93.4194385,-58.7510676 C93.4194385,-58.7510676 93.2699786,-58.7937704 93.1845729,-58.9859332 C93.1205186,-59.1567445 93.1205186,-59.4556644 93.1205186,-59.4556644 L93.1845729,-60.3737754 C93.1845729,-60.3737754 93.4407899,-61.9537805 92.3305161,-62.3167546 C91.8821363,-62.4448631 91.4764594,-62.594323 90.899971,-62.6370259 C88.8502348,-62.7864858 87.0994184,-63 85.3699535,-63 C83.1707573,-63 81.8896721,-62.8078372 79.8399359,-62.6370259 C79.2634476,-62.594323 78.8577706,-62.4662145 78.4093908,-62.3167546 C77.299117,-61.9751319 77.555334,-60.3737754 77.555334,-60.3737754 L77.6193883,-59.4556644 C77.6193883,-59.4556644 77.6407397,-59.1567445 77.555334,-58.9859332 C77.4912798,-58.8151218 77.3204684,-58.7510676 77.3204684,-58.7510676 C77.3204684,-58.7510676 77.0856028,-58.7083647 77.0215485,-58.3453906 C76.9147914,-57.854308 76.9147914,-54.0537553 76.9147914,-54.0537553 C76.9147914,-54.0537553 76.9147914,-53.8402411 76.9788457,-53.626727 C77.0215485,-53.5199699 77.1923599,-53.3705099 77.1923599,-53.3705099 C77.1923599,-53.3705099 77.3204684,-53.1996986 77.3631712,-52.8794273 C77.4058741,-52.4523989 77.0001971,-32.2539563 77.0001971,-32.2539563 C77.0001971,-32.2539563 77.0126506,-32.2547865 77.0367144,-32.2563676 Z M88.5369632,-28.5815864 L87.7762551,-28.5969543 C88.074775,-28.5928326 88.3259052,-28.5875156 88.5369632,-28.5815864 Z" id="Combined-Shape" transform="translate(85.369953, 22.000000) rotate(90.000000) translate(-85.369953, -22.000000) "></path>
            </g>
            <circle id="Oval-5" fill="#EAB96A" cx="127" cy="127" r="55"></circle>
            <text id="500" font-family="SofiaProBold, Sofia Pro" font-size="36" font-weight="bold" fill="#F4F3F3">
                <tspan x="95.1" y="140">500</tspan>
            </text>
        </g>
    </g>
</svg>