<?xml version="1.0" encoding="UTF-8"?>
<svg width="256px" height="256px" viewBox="0 0 256 256" version="1.1" xmlns="http://www.w3.org/2000/svg" xmlns:xlink="http://www.w3.org/1999/xlink">
    <!-- Generator: Sketch 40.2 (33826) - http://www.bohemiancoding.com/sketch -->
    <title>i4-horizontal</title>
    <desc>Created with Sketch.</desc>
    <defs></defs>
    <g id="Page-1" stroke="none" stroke-width="1" fill="none" fill-rule="evenodd">
        <g id="i4-horizontal">
            <g id="Group-8" transform="translate(47.000000, 47.000000)">
                <path d="M76.666761,87.1135859 L76.5674534,91.4169125 C76.5521816,91.4247246 76.544838,91.4289839 76.544838,91.4289839 L76.3526752,95.6779163 C76.3526752,95.6779163 76.2459181,97.5781926 75.4132128,99.3076576 C74.5164532,101.14388 72.8937453,102.80929 72.8937453,102.80929 C72.8937453,102.80929 68.0256217,107.506603 65.4421,114.104191 C63.5204722,119.036369 63.6912836,126.338554 63.6912836,126.338554 L63.7980407,198.207431 L63.6485808,213.302885 C63.6485808,213.302885 63.5418237,216.078569 63.8407435,218.811551 C63.968852,220.007231 64.2677719,221.160207 64.5026375,222.121021 C64.8015574,223.338052 66.4883195,224.106703 66.4883195,224.106703 C66.4883195,224.106703 68.2177845,224.918057 70.7159005,225.323734 C75.1142929,226.049682 79.7475509,226.369953 85,226.369953 C89.6973122,226.369953 94.9070585,226.049682 99.2840995,225.323734 C101.782216,224.918057 103.51168,224.106703 103.51168,224.106703 C103.51168,224.106703 105.177091,223.359403 105.497362,222.121021 C105.732228,221.181559 106.031148,220.007231 106.159256,218.811551 C106.458176,216.078569 106.351419,213.302885 106.351419,213.302885 L106.201959,198.207431 L106.308716,126.338554 C106.308716,126.338554 106.479528,119.015018 104.5579,114.104191 C101.974378,107.506603 97.1062547,102.80929 97.1062547,102.80929 C97.1062547,102.80929 95.4835468,101.122528 94.5867872,99.3076576 C93.7540819,97.5781926 93.6473248,95.6779163 93.6473248,95.6779163 L93.4566104,91.4610082 C93.4700404,91.4679323 93.4765134,91.4716867 93.4765134,91.4716867 L93.3484049,85.9203177 L93.3459068,85.9202857 C93.2595857,81.5748338 92.9703938,66.85441 93.0067822,66.4905262 C93.0708365,66.1702549 93.198945,65.9994435 93.198945,65.9994435 C93.198945,65.9994435 93.3697563,65.8499836 93.4124592,65.7432265 C93.4765134,65.5297123 93.4765134,65.3161981 93.4765134,65.3161981 C93.4765134,65.3161981 93.4765134,61.4942941 93.3697563,61.0245629 C93.3057021,60.6615887 93.0494851,60.6188859 93.0494851,60.6188859 C93.0494851,60.6188859 92.9000251,60.5761831 92.8146194,60.3840203 C92.7505652,60.2132089 92.7505652,59.9142891 92.7505652,59.9142891 L92.8146194,58.996178 C92.8146194,58.996178 93.0708365,57.416173 91.9605627,57.0531989 C91.5121829,56.9250904 91.1065059,56.7756304 90.5300176,56.7329276 C88.4802813,56.5834677 86.729465,56.3699535 85,56.3699535 C82.8008038,56.3699535 81.5197187,56.5621162 79.4699824,56.7329276 C78.8934941,56.7756304 78.4878171,56.9037389 78.0394373,57.0531989 C76.9291635,57.3948216 77.1853806,58.996178 77.1853806,58.996178 L77.2494348,59.9142891 C77.2494348,59.9142891 77.2707862,60.2132089 77.1853806,60.3840203 C77.1213263,60.5548316 76.9505149,60.6188859 76.9505149,60.6188859 C76.9505149,60.6188859 76.7156493,60.6615887 76.6515951,61.0245629 C76.544838,61.5156455 76.544838,65.3161981 76.544838,65.3161981 C76.544838,65.3161981 76.544838,65.5297123 76.6088922,65.7432265 C76.6515951,65.8499836 76.8224064,65.9994435 76.8224064,65.9994435 C76.8224064,65.9994435 76.9505149,66.1702549 76.9932178,66.4905262 C77.0359206,66.9175546 76.6302437,87.1159972 76.6302437,87.1159972 C76.6302437,87.1159972 76.6426972,87.1151669 76.666761,87.1135859 Z M88.1670097,90.788367 L87.4063016,90.7729992 C87.7048216,90.7771208 87.9559517,90.7824379 88.1670097,90.788367 Z" id="Combined-Shape-Copy-7" stroke="#504B4B" stroke-width="2" transform="translate(85.000000, 141.369953) rotate(90.000000) translate(-85.000000, -141.369953) "></path>
                <path d="M76.666761,27.1135859 L76.5674534,31.4169125 C76.5521816,31.4247246 76.544838,31.4289839 76.544838,31.4289839 L76.3526752,35.6779163 C76.3526752,35.6779163 76.2459181,37.5781926 75.4132128,39.3076576 C74.5164532,41.1438796 72.8937453,42.8092903 72.8937453,42.8092903 C72.8937453,42.8092903 68.0256217,47.5066025 65.4421,54.1041911 C63.5204722,59.0363689 63.6912836,66.3385543 63.6912836,66.3385543 L63.7980407,138.207431 L63.6485808,153.302885 C63.6485808,153.302885 63.5418237,156.078569 63.8407435,158.811551 C63.968852,160.007231 64.2677719,161.160207 64.5026375,162.121021 C64.8015574,163.338052 66.4883195,164.106703 66.4883195,164.106703 C66.4883195,164.106703 68.2177845,164.918057 70.7159005,165.323734 C75.1142929,166.049682 79.7475509,166.369953 85,166.369953 C89.6973122,166.369953 94.9070585,166.049682 99.2840995,165.323734 C101.782216,164.918057 103.51168,164.106703 103.51168,164.106703 C103.51168,164.106703 105.177091,163.359403 105.497362,162.121021 C105.732228,161.181559 106.031148,160.007231 106.159256,158.811551 C106.458176,156.078569 106.351419,153.302885 106.351419,153.302885 L106.201959,138.207431 L106.308716,66.3385543 C106.308716,66.3385543 106.479528,59.0150175 104.5579,54.1041911 C101.974378,47.5066025 97.1062547,42.8092903 97.1062547,42.8092903 C97.1062547,42.8092903 95.4835468,41.1225282 94.5867872,39.3076576 C93.7540819,37.5781926 93.6473248,35.6779163 93.6473248,35.6779163 L93.4566104,31.4610082 C93.4700404,31.4679323 93.4765134,31.4716867 93.4765134,31.4716867 L93.3484049,25.9203177 L93.3459068,25.9202857 C93.2595857,21.5748338 92.9703938,6.85441002 93.0067822,6.49052618 C93.0708365,6.17025489 93.198945,5.99944354 93.198945,5.99944354 C93.198945,5.99944354 93.3697563,5.8499836 93.4124592,5.74322651 C93.4765134,5.52971231 93.4765134,5.31619812 93.4765134,5.31619812 C93.4765134,5.31619812 93.4765134,1.49429408 93.3697563,1.02456285 C93.3057021,0.661588727 93.0494851,0.618885889 93.0494851,0.618885889 C93.0494851,0.618885889 92.9000251,0.57618305 92.8146194,0.384020277 C92.7505652,0.213208923 92.7505652,-0.0857109464 92.7505652,-0.0857109464 L92.8146194,-1.00382197 C92.8146194,-1.00382197 93.0708365,-2.583827 91.9605627,-2.94680112 C91.5121829,-3.07490964 91.1065059,-3.22436957 90.5300176,-3.26707241 C88.4802813,-3.41653235 86.729465,-3.63004654 85,-3.63004654 C82.8008038,-3.63004654 81.5197187,-3.43788377 79.4699824,-3.26707241 C78.8934941,-3.22436957 78.4878171,-3.09626106 78.0394373,-2.94680112 C76.9291635,-2.60517842 77.1853806,-1.00382197 77.1853806,-1.00382197 L77.2494348,-0.0857109464 C77.2494348,-0.0857109464 77.2707862,0.213208923 77.1853806,0.384020277 C77.1213263,0.554831631 76.9505149,0.618885889 76.9505149,0.618885889 C76.9505149,0.618885889 76.7156493,0.661588727 76.6515951,1.02456285 C76.544838,1.5156455 76.544838,5.31619812 76.544838,5.31619812 C76.544838,5.31619812 76.544838,5.52971231 76.6088922,5.74322651 C76.6515951,5.8499836 76.8224064,5.99944354 76.8224064,5.99944354 C76.8224064,5.99944354 76.9505149,6.17025489 76.9932178,6.49052618 C77.0359206,6.91755456 76.6302437,27.1159972 76.6302437,27.1159972 C76.6302437,27.1159972 76.6426972,27.1151669 76.666761,27.1135859 Z M88.1670097,30.788367 L87.4063016,30.7729992 C87.7048216,30.7771208 87.9559517,30.7824379 88.1670097,30.788367 Z" id="Combined-Shape-Copy-8" fill="#EAB96A" transform="translate(85.000000, 81.369953) rotate(90.000000) translate(-85.000000, -81.369953) "></path>
                <path d="M76.666761,-32.8864141 L76.5674534,-28.5830875 C76.5521816,-28.5752754 76.544838,-28.5710161 76.544838,-28.5710161 L76.3526752,-24.3220837 C76.3526752,-24.3220837 76.2459181,-22.4218074 75.4132128,-20.6923424 C74.5164532,-18.8561204 72.8937453,-17.1907097 72.8937453,-17.1907097 C72.8937453,-17.1907097 68.0256217,-12.4933975 65.4421,-5.89580891 C63.5204722,-0.963631067 63.6912836,6.33855431 63.6912836,6.33855431 L63.7980407,78.2074315 L63.6485808,93.3028849 C63.6485808,93.3028849 63.5418237,96.0785694 63.8407435,98.811551 C63.968852,100.007231 64.2677719,101.160207 64.5026375,102.121021 C64.8015574,103.338052 66.4883195,104.106703 66.4883195,104.106703 C66.4883195,104.106703 68.2177845,104.918057 70.7159005,105.323734 C75.1142929,106.049682 79.7475509,106.369953 85,106.369953 C89.6973122,106.369953 94.9070585,106.049682 99.2840995,105.323734 C101.782216,104.918057 103.51168,104.106703 103.51168,104.106703 C103.51168,104.106703 105.177091,103.359403 105.497362,102.121021 C105.732228,101.181559 106.031148,100.007231 106.159256,98.811551 C106.458176,96.0785694 106.351419,93.3028849 106.351419,93.3028849 L106.201959,78.2074315 L106.308716,6.33855431 C106.308716,6.33855431 106.479528,-0.984982486 104.5579,-5.89580891 C101.974378,-12.4933975 97.1062547,-17.1907097 97.1062547,-17.1907097 C97.1062547,-17.1907097 95.4835468,-18.8774718 94.5867872,-20.6923424 C93.7540819,-22.4218074 93.6473248,-24.3220837 93.6473248,-24.3220837 L93.4566104,-28.5389918 C93.4700404,-28.5320677 93.4765134,-28.5283133 93.4765134,-28.5283133 L93.3484049,-34.0796823 L93.3459068,-34.0797143 C93.2595857,-38.4251662 92.9703938,-53.14559 93.0067822,-53.5094738 C93.0708365,-53.8297451 93.198945,-54.0005565 93.198945,-54.0005565 C93.198945,-54.0005565 93.3697563,-54.1500164 93.4124592,-54.2567735 C93.4765134,-54.4702877 93.4765134,-54.6838019 93.4765134,-54.6838019 C93.4765134,-54.6838019 93.4765134,-58.5057059 93.3697563,-58.9754371 C93.3057021,-59.3384113 93.0494851,-59.3811141 93.0494851,-59.3811141 C93.0494851,-59.3811141 92.9000251,-59.4238169 92.8146194,-59.6159797 C92.7505652,-59.7867911 92.7505652,-60.0857109 92.7505652,-60.0857109 L92.8146194,-61.003822 C92.8146194,-61.003822 93.0708365,-62.583827 91.9605627,-62.9468011 C91.5121829,-63.0749096 91.1065059,-63.2243696 90.5300176,-63.2670724 C88.4802813,-63.4165323 86.729465,-63.6300465 85,-63.6300465 C82.8008038,-63.6300465 81.5197187,-63.4378838 79.4699824,-63.2670724 C78.8934941,-63.2243696 78.4878171,-63.0962611 78.0394373,-62.9468011 C76.9291635,-62.6051784 77.1853806,-61.003822 77.1853806,-61.003822 L77.2494348,-60.0857109 C77.2494348,-60.0857109 77.2707862,-59.7867911 77.1853806,-59.6159797 C77.1213263,-59.4451684 76.9505149,-59.3811141 76.9505149,-59.3811141 C76.9505149,-59.3811141 76.7156493,-59.3384113 76.6515951,-58.9754371 C76.544838,-58.4843545 76.544838,-54.6838019 76.544838,-54.6838019 C76.544838,-54.6838019 76.544838,-54.4702877 76.6088922,-54.2567735 C76.6515951,-54.1500164 76.8224064,-54.0005565 76.8224064,-54.0005565 C76.8224064,-54.0005565 76.9505149,-53.8297451 76.9932178,-53.5094738 C77.0359206,-53.0824454 76.6302437,-32.8840028 76.6302437,-32.8840028 C76.6302437,-32.8840028 76.6426972,-32.8848331 76.666761,-32.8864141 Z M88.1670097,-29.211633 L87.4063016,-29.2270008 C87.7048216,-29.2228792 87.9559517,-29.2175621 88.1670097,-29.211633 Z" id="Combined-Shape" stroke="#504B4B" stroke-width="2" transform="translate(85.000000, 21.369953) rotate(90.000000) translate(-85.000000, -21.369953) "></path>
            </g>
        </g>
    </g>
</svg>